#N canvas 83 23 920 632 10;
#X obj 181 101 cnv 15 500 400 empty expname adénographie 190 375 1
25 -191407 -1 0;
#X obj 199 151 bng 100 250 50 0 empty empty Expertiser 0 -10 1 15 -204786
-4034 -135135;
#X obj 216 285 s go;
#X obj 638 123 bng 25 250 50 0 empty empty Reset 0 -10 1 10 -261234
-258113 -258113;
#X obj 253 264 loadbang;
#X obj 523 323 tgl 25 0 empty empty empty 17 7 0 10 -261682 -258113
-1 1 1;
#X obj 523 357 tgl 25 0 empty empty empty 17 7 0 10 -261682 -258113
-1 0 1;
#X obj 523 391 tgl 25 0 empty empty empty 17 7 0 10 -261682 -258113
-260097 0 1;
#X obj 328 299 s mode;
#X msg 428 269 set 0;
#X msg 428 293 set 0;
#X msg 428 317 set 0;
#X text 557 324 Aléatoire;
#X msg 388 269 1;
#X msg 388 293 2;
#X msg 388 317 3;
#X text 557 358 Un seul préfixe;
#X text 557 392 Deux préfixes;
#N canvas 754 120 1039 687 mot 0;
#X obj 644 280 r a;
#X obj 642 224 + 1;
#X obj 642 246 s randa;
#N canvas 698 167 698 530 a 0;
#X obj -42 119 s a;
#X obj -15 30 sel 1 2 3 4;
#X obj 53 119 s a;
#X obj 81 29 sel 5 6 7 8;
#X obj 143 120 s a;
#X obj 171 30 sel 9 10 11 12;
#X obj -15 7 r randa;
#X obj 81 6 r randa;
#X obj 171 7 r randa;
#X obj 244 119 s a;
#X obj 272 6 r randa;
#X obj 272 29 sel 13 14 15 16;
#X obj -43 258 s a;
#X obj -15 145 r randa;
#X obj -15 168 sel 17 18 19 20;
#X obj 65 258 s a;
#X obj 93 145 r randa;
#X obj 93 168 sel 21 22 23 24;
#X obj 173 257 s a;
#X obj 201 144 r randa;
#X obj 201 167 sel 25 26 27 28;
#X obj 278 257 s a;
#X obj 306 144 r randa;
#X obj 306 167 sel 29 30 31 32;
#X obj -43 399 s a;
#X obj -15 286 r randa;
#X obj -15 309 sel 33 34 35 36;
#X obj 61 398 s a;
#X obj 89 285 r randa;
#X obj 89 308 sel 37 38 39 40;
#X obj 168 397 s a;
#X obj 196 284 r randa;
#X obj 196 307 sel 41 42 43 44;
#X obj 274 397 s a;
#X obj 302 284 r randa;
#X obj 302 307 sel 45 46 47 48;
#X obj 381 398 s a;
#X obj 409 285 r randa;
#X obj 409 308 sel 49 50 51 52;
#X msg -15 53 ana;
#X msg -15 75 anti;
#X msg -15 97 apo;
#X msg -15 119 archi;
#X msg 81 118 exo;
#X msg 81 96 épi;
#X msg 82 75 endo;
#X msg 81 52 ecto;
#X msg 171 53 hémi;
#X msg 172 76 hyper;
#X msg 171 97 hypo;
#X msg 171 119 acro;
#X msg 272 52 adéno;
#X msg 273 75 aéro;
#X msg 272 96 agro;
#X msg 272 118 allo;
#X msg -15 191 amphi;
#X msg -14 214 andro;
#X msg -15 235 anthropo;
#X msg -14 257 archéo;
#X msg 94 257 électro;
#X msg 93 235 auto;
#X msg 94 214 arthro;
#X msg 93 191 arithmo;
#X msg 201 190 embryo;
#X msg 202 213 entomo;
#X msg 201 234 hagio;
#X msg 203 256 halo;
#X msg 306 190 hecto;
#X msg 307 213 hélio;
#X msg 306 234 hepta;
#X msg 308 256 hexa;
#X msg -15 332 hiéro;
#X msg -14 355 homéo;
#X msg -15 376 horo;
#X msg -13 398 hypno;
#X msg 91 397 iso;
#X msg 89 375 idio;
#X msg 90 354 idéo;
#X msg 89 331 icono;
#X msg 196 330 oligo;
#X msg 197 353 oniro;
#X msg 196 374 ortho;
#X msg 198 396 oxy;
#X msg 302 330 anté;
#X msg 303 353 extra;
#X msg 302 374 inter;
#X msg 304 396 intra;
#X msg 411 397 uni;
#X msg 409 375 ultra;
#X msg 410 354 omni;
#X msg 409 331 octa;
#X connect 1 0 39 0;
#X connect 1 1 40 0;
#X connect 1 2 41 0;
#X connect 1 3 42 0;
#X connect 3 0 46 0;
#X connect 3 1 45 0;
#X connect 3 2 44 0;
#X connect 3 3 43 0;
#X connect 5 0 47 0;
#X connect 5 1 48 0;
#X connect 5 2 49 0;
#X connect 5 3 50 0;
#X connect 6 0 1 0;
#X connect 7 0 3 0;
#X connect 8 0 5 0;
#X connect 10 0 11 0;
#X connect 11 0 51 0;
#X connect 11 1 52 0;
#X connect 11 2 53 0;
#X connect 11 3 54 0;
#X connect 13 0 14 0;
#X connect 14 0 55 0;
#X connect 14 1 56 0;
#X connect 14 2 57 0;
#X connect 14 3 58 0;
#X connect 16 0 17 0;
#X connect 17 0 62 0;
#X connect 17 1 61 0;
#X connect 17 2 60 0;
#X connect 17 3 59 0;
#X connect 19 0 20 0;
#X connect 20 0 63 0;
#X connect 20 1 64 0;
#X connect 20 2 65 0;
#X connect 20 3 66 0;
#X connect 22 0 23 0;
#X connect 23 0 67 0;
#X connect 23 1 68 0;
#X connect 23 2 69 0;
#X connect 23 3 70 0;
#X connect 25 0 26 0;
#X connect 26 0 71 0;
#X connect 26 1 72 0;
#X connect 26 2 73 0;
#X connect 26 3 74 0;
#X connect 28 0 29 0;
#X connect 29 0 78 0;
#X connect 29 1 77 0;
#X connect 29 2 76 0;
#X connect 29 3 75 0;
#X connect 31 0 32 0;
#X connect 32 0 79 0;
#X connect 32 1 80 0;
#X connect 32 2 81 0;
#X connect 32 3 82 0;
#X connect 34 0 35 0;
#X connect 35 0 83 0;
#X connect 35 1 84 0;
#X connect 35 2 85 0;
#X connect 35 3 86 0;
#X connect 37 0 38 0;
#X connect 38 0 90 0;
#X connect 38 1 89 0;
#X connect 38 2 88 0;
#X connect 38 3 87 0;
#X connect 39 0 0 0;
#X connect 40 0 0 0;
#X connect 41 0 0 0;
#X connect 42 0 0 0;
#X connect 43 0 2 0;
#X connect 44 0 2 0;
#X connect 45 0 2 0;
#X connect 46 0 2 0;
#X connect 47 0 4 0;
#X connect 48 0 4 0;
#X connect 49 0 4 0;
#X connect 50 0 4 0;
#X connect 51 0 9 0;
#X connect 52 0 9 0;
#X connect 53 0 9 0;
#X connect 54 0 9 0;
#X connect 55 0 12 0;
#X connect 56 0 12 0;
#X connect 57 0 12 0;
#X connect 58 0 12 0;
#X connect 59 0 15 0;
#X connect 60 0 15 0;
#X connect 61 0 15 0;
#X connect 62 0 15 0;
#X connect 63 0 18 0;
#X connect 64 0 18 0;
#X connect 65 0 18 0;
#X connect 66 0 18 0;
#X connect 67 0 21 0;
#X connect 68 0 21 0;
#X connect 69 0 21 0;
#X connect 70 0 21 0;
#X connect 71 0 24 0;
#X connect 72 0 24 0;
#X connect 73 0 24 0;
#X connect 74 0 24 0;
#X connect 75 0 27 0;
#X connect 76 0 27 0;
#X connect 77 0 27 0;
#X connect 78 0 27 0;
#X connect 79 0 30 0;
#X connect 80 0 30 0;
#X connect 81 0 30 0;
#X connect 82 0 30 0;
#X connect 83 0 33 0;
#X connect 84 0 33 0;
#X connect 85 0 33 0;
#X connect 86 0 33 0;
#X connect 87 0 36 0;
#X connect 88 0 36 0;
#X connect 89 0 36 0;
#X connect 90 0 36 0;
#X restore 672 224 pd a;
#X obj 714 223 + 1;
#X obj 714 245 s randb;
#N canvas 1091 262 917 666 b 0;
#X obj -15 30 sel 1 2 3 4;
#X obj -15 7 r randb;
#X obj -42 119 s b;
#X obj 77 9 r randb;
#X obj 50 121 s b;
#X obj 77 32 sel 5 6 7 8;
#X obj 176 9 r randb;
#X obj 149 121 s b;
#X obj 176 32 sel 9 10 11 12;
#X obj 278 9 r randb;
#X obj 251 121 s b;
#X obj 278 32 sel 13 14 15 16;
#X obj 387 7 r randb;
#X obj 360 119 s b;
#X obj 387 30 sel 17 18 19 20;
#X obj -14 148 r randb;
#X obj -41 260 s b;
#X obj -14 171 sel 21 22 23 24;
#X obj 95 147 r randb;
#X obj 68 259 s b;
#X obj 95 168 sel 25 26 27 28;
#X obj 204 145 r randb;
#X obj 177 257 s b;
#X obj 204 168 sel 29 30 31 32;
#X obj 309 145 r randb;
#X obj 282 257 s b;
#X obj 309 168 sel 33 34 35 36;
#X obj 415 145 r randb;
#X obj 388 257 s b;
#X obj 415 168 sel 37 38 39 40;
#X obj -13 289 r randb;
#X obj -40 401 s b;
#X obj -13 312 sel 41 42 43 44;
#X obj 92 290 r randb;
#X obj 65 402 s b;
#X obj 92 313 sel 45 46 47 48;
#X obj 204 287 r randb;
#X obj 177 399 s b;
#X obj 204 310 sel 49 50 51 52;
#X obj 313 286 r randb;
#X obj 286 398 s b;
#X obj 313 309 sel 53 54 55 56;
#X obj 420 287 r randb;
#X obj 393 399 s b;
#X obj 420 310 sel 57 58 59 60;
#X obj -11 431 r randb;
#X obj -38 543 s b;
#X obj -11 454 sel 61 62 63 64;
#X obj 95 430 r randb;
#X obj 68 542 s b;
#X obj 95 453 sel 65 66 67 68;
#X obj 197 430 r randb;
#X obj 170 542 s b;
#X obj 197 453 sel 69 70 71 72;
#X obj 304 429 r randb;
#X obj 277 541 s b;
#X obj 304 452 sel 73 74 75 76;
#X obj 412 429 r randb;
#X obj 385 541 s b;
#X obj 412 452 sel 77 78 79 80;
#X obj 558 6 r randb;
#X obj 531 118 s b;
#X obj 558 29 sel 81 82 83 84;
#X obj 561 147 r randb;
#X obj 534 259 s b;
#X obj 561 170 sel 85 86 87 88;
#X obj 567 288 r randb;
#X obj 540 400 s b;
#X obj 567 311 sel 89 90 91 92;
#X obj 567 431 r randb;
#X obj 538 500 s b;
#X obj 567 454 sel 93 94;
#X msg -15 53 cata;
#X msg -15 75 dys;
#X msg -15 97 méta;
#X msg -15 119 para;
#X msg 77 55 péri;
#X msg 77 77 pro;
#X msg 77 99 biblio;
#X msg 77 121 bio;
#X msg 176 55 blasto;
#X msg 176 99 bryo;
#X msg 176 121 caco;
#X msg 278 55 calli;
#X msg 278 77 céno;
#X msg 278 99 céphalo;
#X msg 278 121 chloro;
#X msg 387 53 chromo;
#X msg 387 75 chrono;
#X msg 387 97 cinéto;
#X msg 387 119 cosmo;
#X msg 558 52 bi;
#X msg 558 74 co;
#X msg 558 96 contra;
#X msg 559 117 dé;
#X msg -14 194 crypto;
#X msg -14 216 cyclo;
#X msg -14 238 cyto;
#X msg -14 260 dactylo;
#X msg 95 193 déca;
#X msg 95 215 démo;
#X msg 95 237 didacto;
#X msg 95 259 dodéca;
#X msg 204 191 dynamo;
#X msg 204 213 galacto;
#X msg 204 235 gastro;
#X msg 204 257 géo;
#X msg 309 191 glosso;
#X msg 309 213 grapho;
#X msg 309 235 gyro;
#X msg 309 257 kilo;
#X msg 415 191 litho;
#X msg 415 213 logo;
#X msg 415 235 macro;
#X msg 415 257 méga;
#X msg 561 193 déci;
#X msg 561 215 juxta;
#X msg 561 238 multi;
#X msg 562 258 pré;
#X msg -13 335 méso;
#X msg -13 357 micro;
#X msg -13 379 mnémo;
#X msg -13 401 mono;
#X msg 92 336 morpho;
#X msg 92 358 myco;
#X msg 92 380 myria;
#X msg 93 402 nécro;
#X msg 204 333 néo;
#X msg 204 355 neuro;
#X msg 204 377 patho;
#X msg 204 399 penta;
#X msg 313 332 phago;
#X msg 313 354 phéno;
#X msg 313 376 philo;
#X msg 313 398 phono;
#X msg 420 333 phyllo;
#X msg 420 355 physio;
#X msg 420 377 phyto;
#X msg 420 399 pleuro;
#X msg 567 334 pro;
#X msg 567 356 quadri;
#X msg 567 378 radio;
#X msg 568 399 rétro;
#X msg -11 477 poly;
#X msg -11 499 proto;
#X msg -11 521 pseudo;
#X msg -11 543 psycho;
#X msg 95 542 spéléo;
#X msg 95 520 sémio;
#X msg 95 498 rhizo;
#X msg 95 476 ptéro;
#X msg 197 476 sphéro;
#X msg 197 498 stéréo;
#X msg 197 520 tachy;
#X msg 197 542 taxi;
#X msg 304 541 théo;
#X msg 304 519 tétra;
#X msg 304 497 télé;
#X msg 304 475 techno;
#X msg 412 475 thermo;
#X msg 412 497 topo;
#X msg 412 519 typo;
#X msg 413 540 zoo;
#X msg 567 477 simili;
#X msg 567 499 supra;
#X msg 176 77 pata;
#X connect 0 0 72 0;
#X connect 0 1 73 0;
#X connect 0 2 74 0;
#X connect 0 3 75 0;
#X connect 1 0 0 0;
#X connect 3 0 5 0;
#X connect 5 0 76 0;
#X connect 5 1 77 0;
#X connect 5 2 78 0;
#X connect 5 3 79 0;
#X connect 6 0 8 0;
#X connect 8 0 80 0;
#X connect 8 1 165 0;
#X connect 8 2 81 0;
#X connect 8 3 82 0;
#X connect 9 0 11 0;
#X connect 11 0 83 0;
#X connect 11 1 84 0;
#X connect 11 2 85 0;
#X connect 11 3 86 0;
#X connect 12 0 14 0;
#X connect 14 0 87 0;
#X connect 14 1 88 0;
#X connect 14 2 89 0;
#X connect 14 3 90 0;
#X connect 15 0 17 0;
#X connect 17 0 95 0;
#X connect 17 1 96 0;
#X connect 17 2 97 0;
#X connect 17 3 98 0;
#X connect 18 0 20 0;
#X connect 20 0 99 0;
#X connect 20 1 100 0;
#X connect 20 2 101 0;
#X connect 20 3 102 0;
#X connect 21 0 23 0;
#X connect 23 0 103 0;
#X connect 23 1 104 0;
#X connect 23 2 105 0;
#X connect 23 3 106 0;
#X connect 24 0 26 0;
#X connect 26 0 107 0;
#X connect 26 1 108 0;
#X connect 26 2 109 0;
#X connect 26 3 110 0;
#X connect 27 0 29 0;
#X connect 29 0 111 0;
#X connect 29 1 112 0;
#X connect 29 2 113 0;
#X connect 29 3 114 0;
#X connect 30 0 32 0;
#X connect 32 0 119 0;
#X connect 32 1 120 0;
#X connect 32 2 121 0;
#X connect 32 3 122 0;
#X connect 33 0 35 0;
#X connect 35 0 123 0;
#X connect 35 1 124 0;
#X connect 35 2 125 0;
#X connect 35 3 126 0;
#X connect 36 0 38 0;
#X connect 38 0 127 0;
#X connect 38 1 128 0;
#X connect 38 2 129 0;
#X connect 38 3 130 0;
#X connect 39 0 41 0;
#X connect 41 0 131 0;
#X connect 41 1 132 0;
#X connect 41 2 133 0;
#X connect 41 3 134 0;
#X connect 42 0 44 0;
#X connect 44 0 135 0;
#X connect 44 1 136 0;
#X connect 44 2 137 0;
#X connect 44 3 138 0;
#X connect 45 0 47 0;
#X connect 47 0 143 0;
#X connect 47 1 144 0;
#X connect 47 2 145 0;
#X connect 47 3 146 0;
#X connect 48 0 50 0;
#X connect 50 0 150 0;
#X connect 50 1 149 0;
#X connect 50 2 148 0;
#X connect 50 3 147 0;
#X connect 51 0 53 0;
#X connect 53 0 151 0;
#X connect 53 1 152 0;
#X connect 53 2 153 0;
#X connect 53 3 154 0;
#X connect 54 0 56 0;
#X connect 56 0 158 0;
#X connect 56 1 157 0;
#X connect 56 2 156 0;
#X connect 56 3 155 0;
#X connect 57 0 59 0;
#X connect 59 0 159 0;
#X connect 59 1 160 0;
#X connect 59 2 161 0;
#X connect 59 3 162 0;
#X connect 60 0 62 0;
#X connect 62 0 91 0;
#X connect 62 1 92 0;
#X connect 62 2 93 0;
#X connect 62 3 94 0;
#X connect 63 0 65 0;
#X connect 65 0 115 0;
#X connect 65 1 116 0;
#X connect 65 2 117 0;
#X connect 65 3 118 0;
#X connect 66 0 68 0;
#X connect 68 0 139 0;
#X connect 68 1 140 0;
#X connect 68 2 141 0;
#X connect 68 3 142 0;
#X connect 69 0 71 0;
#X connect 71 0 163 0;
#X connect 71 1 164 0;
#X connect 72 0 2 0;
#X connect 73 0 2 0;
#X connect 74 0 2 0;
#X connect 75 0 2 0;
#X connect 76 0 4 0;
#X connect 77 0 4 0;
#X connect 78 0 4 0;
#X connect 79 0 4 0;
#X connect 80 0 7 0;
#X connect 81 0 7 0;
#X connect 82 0 7 0;
#X connect 83 0 10 0;
#X connect 84 0 10 0;
#X connect 85 0 10 0;
#X connect 86 0 10 0;
#X connect 87 0 13 0;
#X connect 88 0 13 0;
#X connect 89 0 13 0;
#X connect 90 0 13 0;
#X connect 91 0 61 0;
#X connect 92 0 61 0;
#X connect 93 0 61 0;
#X connect 94 0 61 0;
#X connect 95 0 16 0;
#X connect 96 0 16 0;
#X connect 97 0 16 0;
#X connect 98 0 16 0;
#X connect 99 0 19 0;
#X connect 100 0 19 0;
#X connect 101 0 19 0;
#X connect 102 0 19 0;
#X connect 103 0 22 0;
#X connect 104 0 22 0;
#X connect 105 0 22 0;
#X connect 106 0 22 0;
#X connect 107 0 25 0;
#X connect 108 0 25 0;
#X connect 109 0 25 0;
#X connect 110 0 25 0;
#X connect 111 0 28 0;
#X connect 112 0 28 0;
#X connect 113 0 28 0;
#X connect 114 0 28 0;
#X connect 115 0 64 0;
#X connect 116 0 64 0;
#X connect 117 0 64 0;
#X connect 118 0 64 0;
#X connect 119 0 31 0;
#X connect 120 0 31 0;
#X connect 121 0 31 0;
#X connect 122 0 31 0;
#X connect 123 0 34 0;
#X connect 124 0 34 0;
#X connect 125 0 34 0;
#X connect 126 0 34 0;
#X connect 127 0 37 0;
#X connect 128 0 37 0;
#X connect 129 0 37 0;
#X connect 130 0 37 0;
#X connect 131 0 40 0;
#X connect 132 0 40 0;
#X connect 133 0 40 0;
#X connect 134 0 40 0;
#X connect 135 0 43 0;
#X connect 136 0 43 0;
#X connect 137 0 43 0;
#X connect 138 0 43 0;
#X connect 139 0 67 0;
#X connect 140 0 67 0;
#X connect 141 0 67 0;
#X connect 142 0 67 0;
#X connect 143 0 46 0;
#X connect 144 0 46 0;
#X connect 145 0 46 0;
#X connect 146 0 46 0;
#X connect 147 0 49 0;
#X connect 148 0 49 0;
#X connect 149 0 49 0;
#X connect 150 0 49 0;
#X connect 151 0 52 0;
#X connect 152 0 52 0;
#X connect 153 0 52 0;
#X connect 154 0 52 0;
#X connect 155 0 55 0;
#X connect 156 0 55 0;
#X connect 157 0 55 0;
#X connect 158 0 55 0;
#X connect 159 0 58 0;
#X connect 160 0 58 0;
#X connect 161 0 58 0;
#X connect 162 0 58 0;
#X connect 163 0 70 0;
#X connect 164 0 70 0;
#X connect 165 0 7 0;
#X restore 744 223 pd b;
#X obj 719 281 r b;
#X obj 776 224 + 1;
#X obj 776 246 s randc;
#N canvas 991 23 578 325 c 0;
#X obj 44 48 sel 1 2 3 4;
#X obj 44 25 r randc;
#X obj 17 137 s c;
#X obj 141 25 r randc;
#X obj 114 137 s c;
#X obj 141 48 sel 5 6 7 8;
#X obj 235 27 r randc;
#X obj 208 139 s c;
#X obj 235 50 sel 9 10 11 12;
#X obj 336 27 r randc;
#X obj 309 139 s c;
#X obj 336 50 sel 13 14 15 16;
#X obj 46 165 r randc;
#X obj 19 277 s c;
#X obj 46 188 sel 17 18 19 20;
#X obj 150 165 r randc;
#X obj 123 277 s c;
#X obj 150 188 sel 21 22 23 24;
#X obj 258 162 r randc;
#X obj 231 274 s c;
#X obj 258 185 sel 25 26 27 28;
#X obj 365 160 r randc;
#X obj 338 272 s c;
#X obj 365 183 sel 29 30 31 32;
#X obj 452 24 r randc;
#X obj 425 136 s c;
#X obj 452 47 sel 33 34 35 36;
#X msg 44 71 algie;
#X msg 44 93 archie;
#X msg 44 115 bolisme;
#X msg 45 137 alité;
#X msg 141 137 doxie;
#X msg 141 115 cyclisme;
#X msg 141 93 cratie;
#X msg 141 71 isme;
#X msg 235 95 gamie;
#X msg 236 117 génétique;
#X msg 235 139 isation;
#X msg 336 73 graphie;
#X msg 336 95 lithique;
#X msg 336 117 logie;
#X msg 336 139 mancie;
#X msg 452 136 culture;
#X msg 452 114 pédie;
#X msg 452 92 typie;
#X msg 452 70 tomie;
#X msg 47 211 manie;
#X msg 46 233 métrique;
#X msg 46 255 nomie;
#X msg 46 277 pathie;
#X msg 150 211 phagie;
#X msg 150 233 philie;
#X msg 150 255 phobie;
#X msg 151 277 phonie;
#X msg 258 208 phorisme;
#X msg 258 230 anité;
#X msg 258 252 isme;
#X msg 258 274 scopie;
#X msg 365 206 phasie;
#X msg 365 228 scopie;
#X msg 365 272 thérapie;
#X msg 235 73 activité;
#X msg 365 250 physique;
#X connect 0 0 27 0;
#X connect 0 1 28 0;
#X connect 0 2 29 0;
#X connect 0 3 30 0;
#X connect 1 0 0 0;
#X connect 3 0 5 0;
#X connect 5 0 34 0;
#X connect 5 1 33 0;
#X connect 5 2 32 0;
#X connect 5 3 31 0;
#X connect 6 0 8 0;
#X connect 8 0 61 0;
#X connect 8 1 35 0;
#X connect 8 2 36 0;
#X connect 8 3 37 0;
#X connect 9 0 11 0;
#X connect 11 0 38 0;
#X connect 11 1 39 0;
#X connect 11 2 40 0;
#X connect 11 3 41 0;
#X connect 12 0 14 0;
#X connect 14 0 46 0;
#X connect 14 1 47 0;
#X connect 14 2 48 0;
#X connect 14 3 49 0;
#X connect 15 0 17 0;
#X connect 17 0 50 0;
#X connect 17 1 51 0;
#X connect 17 2 52 0;
#X connect 17 3 53 0;
#X connect 18 0 20 0;
#X connect 20 0 54 0;
#X connect 20 1 55 0;
#X connect 20 2 56 0;
#X connect 20 3 57 0;
#X connect 21 0 23 0;
#X connect 23 0 58 0;
#X connect 23 1 59 0;
#X connect 23 2 62 0;
#X connect 23 3 60 0;
#X connect 24 0 26 0;
#X connect 26 0 45 0;
#X connect 26 1 44 0;
#X connect 26 2 43 0;
#X connect 26 3 42 0;
#X connect 27 0 2 0;
#X connect 28 0 2 0;
#X connect 29 0 2 0;
#X connect 30 0 2 0;
#X connect 31 0 4 0;
#X connect 32 0 4 0;
#X connect 33 0 4 0;
#X connect 34 0 4 0;
#X connect 35 0 7 0;
#X connect 36 0 7 0;
#X connect 37 0 7 0;
#X connect 38 0 10 0;
#X connect 39 0 10 0;
#X connect 40 0 10 0;
#X connect 41 0 10 0;
#X connect 42 0 25 0;
#X connect 43 0 25 0;
#X connect 44 0 25 0;
#X connect 45 0 25 0;
#X connect 46 0 13 0;
#X connect 47 0 13 0;
#X connect 48 0 13 0;
#X connect 49 0 13 0;
#X connect 50 0 16 0;
#X connect 51 0 16 0;
#X connect 52 0 16 0;
#X connect 53 0 16 0;
#X connect 54 0 19 0;
#X connect 55 0 19 0;
#X connect 56 0 19 0;
#X connect 57 0 19 0;
#X connect 58 0 22 0;
#X connect 59 0 22 0;
#X connect 60 0 22 0;
#X connect 61 0 7 0;
#X connect 62 0 22 0;
#X restore 806 224 pd c;
#X obj 642 202 random 52;
#X obj 714 201 random 94;
#X obj 776 202 random 36;
#X obj 788 280 r c;
#X obj 694 26 r go3;
#X obj 390 25 r go2;
#X obj 366 202 random 146;
#X obj 366 224 + 1;
#X obj 366 246 s randab;
#N canvas 99 170 1347 717 ab 0;
#X obj -113 44 sel 1 2 3 4;
#X obj -17 43 sel 5 6 7 8;
#X obj 73 44 sel 9 10 11 12;
#X obj 174 43 sel 13 14 15 16;
#X obj -113 182 sel 17 18 19 20;
#X obj -5 182 sel 21 22 23 24;
#X obj 103 181 sel 25 26 27 28;
#X obj 208 181 sel 29 30 31 32;
#X obj -113 323 sel 33 34 35 36;
#X obj -9 322 sel 37 38 39 40;
#X obj 98 321 sel 41 42 43 44;
#X obj 204 321 sel 45 46 47 48;
#X obj -112 462 sel 49 50 51 52;
#X obj 416 46 sel 53 54 55 56;
#X obj 528 47 sel 57 58 59 60;
#X obj 627 47 sel 61 62 63 64;
#X obj 729 47 sel 65 66 67 68;
#X obj 838 45 sel 69 70 71 72;
#X obj 1009 44 sel 73 74 75 76;
#X obj 437 186 sel 77 78 79 80;
#X obj 546 183 sel 81 82 83 84;
#X obj 655 183 sel 85 86 87 88;
#X obj 760 183 sel 89 90 91 92;
#X obj 866 183 sel 93 94 95 96;
#X obj 1012 185 sel 97 98 99 100;
#X obj 360 335 sel 101 102 103 104;
#X obj 486 333 sel 106 106 107 108;
#X obj 611 334 sel 109 110 111 112;
#X obj 736 332 sel 113 114 115 116;
#X obj 871 325 sel 117 118 119 120;
#X obj 1018 326 sel 121 122 123 124;
#X obj 352 476 sel 125 126 127 128;
#X obj 478 475 sel 129 130 131 132;
#X obj 600 475 sel 133 134 135 136;
#X obj 755 467 sel 137 138 139 140;
#X obj 881 466 sel 141 142 143 144;
#X obj 1019 469 sel 145 146;
#X obj -113 21 r randab;
#X obj -17 20 r randab;
#X obj 73 21 r randab;
#X obj 174 20 r randab;
#X obj 208 158 r randab;
#X obj 103 158 r randab;
#X obj -5 159 r randab;
#X obj -113 159 r randab;
#X obj -113 299 r randab;
#X obj -9 299 r randab;
#X obj 98 298 r randab;
#X obj 204 298 r randab;
#X obj -112 439 r randab;
#X obj 416 23 r randab;
#X obj 528 24 r randab;
#X obj 627 24 r randab;
#X obj 729 24 r randab;
#X obj 838 22 r randab;
#X obj 1009 21 r randab;
#X obj 1012 162 r randab;
#X obj 866 160 r randab;
#X obj 760 160 r randab;
#X obj 655 160 r randab;
#X obj 546 162 r randab;
#X obj 437 163 r randab;
#X obj 360 312 r randab;
#X obj 486 310 r randab;
#X obj 611 311 r randab;
#X obj 736 309 r randab;
#X obj 871 302 r randab;
#X obj 1018 303 r randab;
#X obj 1018 446 r randab;
#X obj 882 443 r randab;
#X obj 755 444 r randab;
#X obj 600 452 r randab;
#X obj 478 452 r randab;
#X obj 352 453 r randab;
#X obj -140 133 s bb;
#X obj -45 133 s bb;
#X obj 45 134 s bb;
#X obj 146 133 s bb;
#X obj 181 269 s bb;
#X obj 75 271 s bb;
#X obj -33 272 s bb;
#X obj -141 272 s bb;
#X obj -141 413 s bb;
#X obj -37 412 s bb;
#X obj 70 411 s bb;
#X obj 176 411 s bb;
#X obj -140 552 s bb;
#X obj 389 135 s bb;
#X obj 501 136 s bb;
#X obj 600 136 s bb;
#X obj 702 136 s bb;
#X obj 811 134 s bb;
#X obj 982 133 s bb;
#X obj 985 274 s bb;
#X obj 839 272 s bb;
#X obj 733 272 s bb;
#X obj 628 272 s bb;
#X obj 519 274 s bb;
#X obj 410 275 s bb;
#X obj 333 424 s bb;
#X obj 459 422 s bb;
#X obj 584 423 s bb;
#X obj 709 421 s bb;
#X obj 844 414 s bb;
#X obj 991 415 s bb;
#X obj 989 515 s bb;
#X obj 854 555 s bb;
#X obj 728 556 s bb;
#X obj 573 564 s bb;
#X obj 451 564 s bb;
#X obj 325 565 s bb;
#X msg -113 67 ana;
#X msg -113 89 anti;
#X msg -113 111 apo;
#X msg -113 133 archi;
#X msg -17 132 exo;
#X msg -17 110 épi;
#X msg -16 88 endo;
#X msg -17 66 ecto;
#X msg 73 67 hémi;
#X msg 74 90 hyper;
#X msg 73 111 hypo;
#X msg 73 133 acro;
#X msg 174 132 allo;
#X msg 174 110 agro;
#X msg 175 89 aéro;
#X msg 174 66 adéno;
#X msg -113 205 amphi;
#X msg -112 228 andro;
#X msg -113 249 anthropo;
#X msg -112 271 archéo;
#X msg -4 271 électro;
#X msg -5 249 auto;
#X msg -4 228 arthro;
#X msg -5 205 arithmo;
#X msg 103 204 embryo;
#X msg 104 227 entomo;
#X msg 103 248 hagio;
#X msg 105 270 halo;
#X msg 208 204 hecto;
#X msg 209 227 hélio;
#X msg 208 248 hepta;
#X msg 210 270 hexa;
#X msg 204 344 anté;
#X msg 205 367 extra;
#X msg 204 388 inter;
#X msg 206 410 intra;
#X msg 100 410 oxy;
#X msg 98 388 ortho;
#X msg 99 367 oniro;
#X msg 98 344 oligo;
#X msg -9 345 icono;
#X msg -8 368 idéo;
#X msg -9 389 idio;
#X msg -7 411 iso;
#X msg -111 412 hypno;
#X msg -113 390 horo;
#X msg -112 369 homéo;
#X msg -113 346 hiéro;
#X msg -112 485 octa;
#X msg -111 508 omni;
#X msg -112 529 ultra;
#X msg -110 551 uni;
#X msg 416 69 cata;
#X msg 416 91 dys;
#X msg 416 113 méta;
#X msg 416 135 para;
#X msg 528 70 péri;
#X msg 528 92 pro;
#X msg 528 114 biblio;
#X msg 528 136 bio;
#X msg 627 70 blasto;
#X msg 627 92 pata;
#X msg 627 114 bryo;
#X msg 627 136 caco;
#X msg 729 70 calli;
#X msg 729 92 céno;
#X msg 729 114 céphalo;
#X msg 729 136 chloro;
#X msg 838 68 chromo;
#X msg 838 90 chrono;
#X msg 838 112 cinéto;
#X msg 838 134 cosmo;
#X msg 1009 67 bi;
#X msg 1009 89 co;
#X msg 1009 111 contra;
#X msg 1010 132 dé;
#X msg 437 209 crypto;
#X msg 437 231 cyclo;
#X msg 437 253 cyto;
#X msg 437 275 dactylo;
#X msg 546 274 dodéca;
#X msg 546 252 didacto;
#X msg 546 230 démo;
#X msg 546 208 déca;
#X msg 655 206 dynamo;
#X msg 655 228 galacto;
#X msg 655 250 gastro;
#X msg 655 272 géo;
#X msg 760 206 glosso;
#X msg 760 228 grapho;
#X msg 760 250 gyro;
#X msg 760 272 kilo;
#X msg 866 206 litho;
#X msg 866 228 logo;
#X msg 866 250 macro;
#X msg 866 272 méga;
#X msg 1012 208 déci;
#X msg 1012 230 juxta;
#X msg 1012 252 multi;
#X msg 1013 273 pré;
#X msg 1018 349 pro;
#X msg 1018 371 quadri;
#X msg 1018 393 radio;
#X msg 1019 414 rétro;
#X msg 871 414 pleuro;
#X msg 871 392 phyto;
#X msg 871 370 physio;
#X msg 871 348 phyllo;
#X msg 736 355 phago;
#X msg 736 377 phéno;
#X msg 736 399 philo;
#X msg 736 421 phono;
#X msg 611 423 penta;
#X msg 611 401 patho;
#X msg 611 379 neuro;
#X msg 611 357 néo;
#X msg 486 356 morpho;
#X msg 486 378 myco;
#X msg 487 422 nécro;
#X msg 360 424 mono;
#X msg 361 402 mnémo;
#X msg 360 380 micro;
#X msg 360 358 méso;
#X msg 352 499 poly;
#X msg 352 521 proto;
#X msg 352 543 pseudo;
#X msg 352 565 psycho;
#X msg 478 564 spéléo;
#X msg 478 520 rhizo;
#X msg 478 542 sémio;
#X msg 478 498 ptéro;
#X msg 600 498 sphéro;
#X msg 600 520 stéréo;
#X msg 600 542 tachy;
#X msg 600 564 taxi;
#X msg 755 556 théo;
#X msg 755 534 tétra;
#X msg 755 512 télé;
#X msg 755 490 techno;
#X msg 881 489 thermo;
#X msg 881 511 topo;
#X msg 881 533 typo;
#X msg 882 554 zoo;
#X msg 1018 514 supra;
#X msg 1018 492 simili;
#X msg 486 400 myria;
#X connect 0 0 111 0;
#X connect 0 1 112 0;
#X connect 0 2 113 0;
#X connect 0 3 114 0;
#X connect 1 0 118 0;
#X connect 1 1 117 0;
#X connect 1 2 116 0;
#X connect 1 3 115 0;
#X connect 2 0 119 0;
#X connect 2 1 120 0;
#X connect 2 2 121 0;
#X connect 2 3 122 0;
#X connect 3 0 126 0;
#X connect 3 1 125 0;
#X connect 3 2 124 0;
#X connect 3 3 123 0;
#X connect 4 0 127 0;
#X connect 4 1 128 0;
#X connect 4 2 129 0;
#X connect 4 3 130 0;
#X connect 5 0 134 0;
#X connect 5 1 133 0;
#X connect 5 2 132 0;
#X connect 5 3 131 0;
#X connect 6 0 135 0;
#X connect 6 1 136 0;
#X connect 6 2 137 0;
#X connect 6 3 138 0;
#X connect 7 0 139 0;
#X connect 7 1 140 0;
#X connect 7 2 141 0;
#X connect 7 3 142 0;
#X connect 8 0 158 0;
#X connect 8 1 157 0;
#X connect 8 2 156 0;
#X connect 8 3 155 0;
#X connect 9 0 151 0;
#X connect 9 1 152 0;
#X connect 9 2 153 0;
#X connect 9 3 154 0;
#X connect 10 0 150 0;
#X connect 10 1 149 0;
#X connect 10 2 148 0;
#X connect 10 3 147 0;
#X connect 11 0 143 0;
#X connect 11 1 144 0;
#X connect 11 2 145 0;
#X connect 11 3 146 0;
#X connect 12 0 159 0;
#X connect 12 1 160 0;
#X connect 12 2 161 0;
#X connect 12 3 162 0;
#X connect 13 0 163 0;
#X connect 13 1 164 0;
#X connect 13 2 165 0;
#X connect 13 3 166 0;
#X connect 14 0 167 0;
#X connect 14 1 168 0;
#X connect 14 2 169 0;
#X connect 14 3 170 0;
#X connect 15 0 171 0;
#X connect 15 1 172 0;
#X connect 15 2 173 0;
#X connect 15 3 174 0;
#X connect 16 0 175 0;
#X connect 16 1 176 0;
#X connect 16 2 177 0;
#X connect 16 3 178 0;
#X connect 17 0 179 0;
#X connect 17 1 180 0;
#X connect 17 2 181 0;
#X connect 17 3 182 0;
#X connect 18 0 183 0;
#X connect 18 1 184 0;
#X connect 18 2 185 0;
#X connect 18 3 186 0;
#X connect 19 0 187 0;
#X connect 19 1 188 0;
#X connect 19 2 189 0;
#X connect 19 3 190 0;
#X connect 20 0 194 0;
#X connect 20 1 193 0;
#X connect 20 2 192 0;
#X connect 20 3 191 0;
#X connect 21 0 195 0;
#X connect 21 1 196 0;
#X connect 21 2 197 0;
#X connect 21 3 198 0;
#X connect 22 0 199 0;
#X connect 22 1 200 0;
#X connect 22 2 201 0;
#X connect 22 3 202 0;
#X connect 23 0 203 0;
#X connect 23 1 204 0;
#X connect 23 2 205 0;
#X connect 23 3 206 0;
#X connect 24 0 207 0;
#X connect 24 1 208 0;
#X connect 24 2 209 0;
#X connect 24 3 210 0;
#X connect 25 0 233 0;
#X connect 25 1 232 0;
#X connect 25 2 231 0;
#X connect 25 3 230 0;
#X connect 26 0 227 0;
#X connect 26 1 228 0;
#X connect 26 2 256 0;
#X connect 26 3 229 0;
#X connect 27 0 226 0;
#X connect 27 1 225 0;
#X connect 27 2 224 0;
#X connect 27 3 223 0;
#X connect 28 0 219 0;
#X connect 28 1 220 0;
#X connect 28 2 221 0;
#X connect 28 3 222 0;
#X connect 29 0 218 0;
#X connect 29 1 217 0;
#X connect 29 2 216 0;
#X connect 29 3 215 0;
#X connect 30 0 211 0;
#X connect 30 1 212 0;
#X connect 30 2 213 0;
#X connect 30 3 214 0;
#X connect 31 0 234 0;
#X connect 31 1 235 0;
#X connect 31 2 236 0;
#X connect 31 3 237 0;
#X connect 32 0 241 0;
#X connect 32 1 239 0;
#X connect 32 2 240 0;
#X connect 32 3 238 0;
#X connect 33 0 242 0;
#X connect 33 1 243 0;
#X connect 33 2 244 0;
#X connect 33 3 245 0;
#X connect 34 0 249 0;
#X connect 34 1 248 0;
#X connect 34 2 247 0;
#X connect 34 3 246 0;
#X connect 35 0 250 0;
#X connect 35 1 251 0;
#X connect 35 2 252 0;
#X connect 35 3 253 0;
#X connect 36 0 255 0;
#X connect 36 1 254 0;
#X connect 37 0 0 0;
#X connect 38 0 1 0;
#X connect 39 0 2 0;
#X connect 40 0 3 0;
#X connect 41 0 7 0;
#X connect 42 0 6 0;
#X connect 43 0 5 0;
#X connect 44 0 4 0;
#X connect 45 0 8 0;
#X connect 46 0 9 0;
#X connect 47 0 10 0;
#X connect 48 0 11 0;
#X connect 49 0 12 0;
#X connect 50 0 13 0;
#X connect 51 0 14 0;
#X connect 52 0 15 0;
#X connect 53 0 16 0;
#X connect 54 0 17 0;
#X connect 55 0 18 0;
#X connect 56 0 24 0;
#X connect 57 0 23 0;
#X connect 58 0 22 0;
#X connect 59 0 21 0;
#X connect 60 0 20 0;
#X connect 61 0 19 0;
#X connect 62 0 25 0;
#X connect 63 0 26 0;
#X connect 64 0 27 0;
#X connect 65 0 28 0;
#X connect 66 0 29 0;
#X connect 67 0 30 0;
#X connect 68 0 36 0;
#X connect 69 0 35 0;
#X connect 70 0 34 0;
#X connect 71 0 33 0;
#X connect 72 0 32 0;
#X connect 73 0 31 0;
#X connect 111 0 74 0;
#X connect 112 0 74 0;
#X connect 113 0 74 0;
#X connect 114 0 74 0;
#X connect 115 0 75 0;
#X connect 116 0 75 0;
#X connect 117 0 75 0;
#X connect 118 0 75 0;
#X connect 119 0 76 0;
#X connect 120 0 76 0;
#X connect 121 0 76 0;
#X connect 122 0 76 0;
#X connect 123 0 77 0;
#X connect 124 0 77 0;
#X connect 125 0 77 0;
#X connect 126 0 77 0;
#X connect 127 0 81 0;
#X connect 128 0 81 0;
#X connect 129 0 81 0;
#X connect 130 0 81 0;
#X connect 131 0 80 0;
#X connect 132 0 80 0;
#X connect 133 0 80 0;
#X connect 134 0 80 0;
#X connect 135 0 79 0;
#X connect 136 0 79 0;
#X connect 137 0 79 0;
#X connect 138 0 79 0;
#X connect 139 0 78 0;
#X connect 140 0 78 0;
#X connect 141 0 78 0;
#X connect 142 0 78 0;
#X connect 143 0 85 0;
#X connect 144 0 85 0;
#X connect 145 0 85 0;
#X connect 146 0 85 0;
#X connect 147 0 84 0;
#X connect 148 0 84 0;
#X connect 149 0 84 0;
#X connect 150 0 84 0;
#X connect 151 0 83 0;
#X connect 152 0 83 0;
#X connect 153 0 83 0;
#X connect 154 0 83 0;
#X connect 155 0 82 0;
#X connect 156 0 82 0;
#X connect 157 0 82 0;
#X connect 158 0 82 0;
#X connect 159 0 86 0;
#X connect 160 0 86 0;
#X connect 161 0 86 0;
#X connect 162 0 86 0;
#X connect 163 0 87 0;
#X connect 164 0 87 0;
#X connect 165 0 87 0;
#X connect 166 0 87 0;
#X connect 167 0 88 0;
#X connect 168 0 88 0;
#X connect 169 0 88 0;
#X connect 170 0 88 0;
#X connect 171 0 89 0;
#X connect 172 0 89 0;
#X connect 173 0 89 0;
#X connect 174 0 89 0;
#X connect 175 0 90 0;
#X connect 176 0 90 0;
#X connect 177 0 90 0;
#X connect 178 0 90 0;
#X connect 179 0 91 0;
#X connect 180 0 91 0;
#X connect 181 0 91 0;
#X connect 182 0 91 0;
#X connect 183 0 92 0;
#X connect 184 0 92 0;
#X connect 185 0 92 0;
#X connect 186 0 92 0;
#X connect 187 0 98 0;
#X connect 188 0 98 0;
#X connect 189 0 98 0;
#X connect 190 0 98 0;
#X connect 191 0 97 0;
#X connect 192 0 97 0;
#X connect 193 0 97 0;
#X connect 194 0 97 0;
#X connect 195 0 96 0;
#X connect 196 0 96 0;
#X connect 197 0 96 0;
#X connect 198 0 96 0;
#X connect 199 0 95 0;
#X connect 200 0 95 0;
#X connect 201 0 95 0;
#X connect 202 0 95 0;
#X connect 203 0 94 0;
#X connect 204 0 94 0;
#X connect 205 0 94 0;
#X connect 206 0 94 0;
#X connect 207 0 93 0;
#X connect 208 0 93 0;
#X connect 209 0 93 0;
#X connect 210 0 93 0;
#X connect 211 0 104 0;
#X connect 212 0 104 0;
#X connect 213 0 104 0;
#X connect 214 0 104 0;
#X connect 215 0 103 0;
#X connect 216 0 103 0;
#X connect 217 0 103 0;
#X connect 218 0 103 0;
#X connect 219 0 102 0;
#X connect 220 0 102 0;
#X connect 221 0 102 0;
#X connect 222 0 102 0;
#X connect 223 0 101 0;
#X connect 224 0 101 0;
#X connect 225 0 101 0;
#X connect 226 0 101 0;
#X connect 227 0 100 0;
#X connect 228 0 100 0;
#X connect 229 0 100 0;
#X connect 230 0 99 0;
#X connect 231 0 99 0;
#X connect 232 0 99 0;
#X connect 233 0 99 0;
#X connect 234 0 110 0;
#X connect 235 0 110 0;
#X connect 236 0 110 0;
#X connect 237 0 110 0;
#X connect 238 0 109 0;
#X connect 239 0 109 0;
#X connect 240 0 109 0;
#X connect 241 0 109 0;
#X connect 242 0 108 0;
#X connect 243 0 108 0;
#X connect 244 0 108 0;
#X connect 245 0 108 0;
#X connect 246 0 107 0;
#X connect 247 0 107 0;
#X connect 248 0 107 0;
#X connect 249 0 107 0;
#X connect 250 0 106 0;
#X connect 251 0 106 0;
#X connect 252 0 106 0;
#X connect 253 0 106 0;
#X connect 254 0 105 0;
#X connect 255 0 105 0;
#X connect 256 0 100 0;
#X restore 396 224 pd ab;
#X obj 439 225 + 1;
#X obj 439 203 random 36;
#N canvas 138 32 570 323 cd 0;
#X obj -34 44 sel 1 2 3 4;
#X obj 63 44 sel 5 6 7 8;
#X obj 157 46 sel 9 10 11 12;
#X obj 258 46 sel 13 14 15 16;
#X obj -32 184 sel 17 18 19 20;
#X obj 72 184 sel 21 22 23 24;
#X obj 180 181 sel 25 26 27 28;
#X obj 287 179 sel 29 30 31 32;
#X obj 374 43 sel 33 34 35 36;
#X msg -34 67 algie;
#X msg -34 89 archie;
#X msg -34 111 bolisme;
#X msg -33 133 alité;
#X msg 63 133 doxie;
#X msg 63 111 cyclisme;
#X msg 63 89 cratie;
#X msg 63 67 isme;
#X msg 157 91 gamie;
#X msg 158 113 génétique;
#X msg 157 135 isation;
#X msg 258 69 graphie;
#X msg 258 91 lithique;
#X msg 258 113 logie;
#X msg 258 135 mancie;
#X msg 374 132 culture;
#X msg 374 110 pédie;
#X msg 374 88 typie;
#X msg 374 66 tomie;
#X msg -31 207 manie;
#X msg -32 229 métrique;
#X msg -32 251 nomie;
#X msg -32 273 pathie;
#X msg 72 207 phagie;
#X msg 72 229 philie;
#X msg 72 251 phobie;
#X msg 73 273 phonie;
#X msg 180 204 phorisme;
#X msg 180 226 anité;
#X msg 180 248 isme;
#X msg 180 270 scopie;
#X msg 287 202 phasie;
#X msg 287 224 scopie;
#X msg 287 268 thérapie;
#X msg 157 69 activité;
#X obj -34 21 r randcd;
#X obj 63 21 r randcd;
#X obj 157 23 r randcd;
#X obj 259 23 r randcd;
#X obj 374 20 r randcd;
#X obj 287 156 r randcd;
#X obj 180 158 r randcd;
#X obj 72 161 r randcd;
#X obj -32 161 r randcd;
#X obj -61 133 s cc;
#X obj 36 133 s cc;
#X obj 130 135 s cc;
#X obj 231 135 s cc;
#X obj 347 132 s cc;
#X obj 260 268 s cc;
#X obj 153 270 s cc;
#X obj 45 273 s cc;
#X obj -59 273 s cc;
#X msg 287 246 physique;
#X connect 0 0 9 0;
#X connect 0 1 10 0;
#X connect 0 2 11 0;
#X connect 0 3 12 0;
#X connect 1 0 16 0;
#X connect 1 1 15 0;
#X connect 1 2 14 0;
#X connect 1 3 13 0;
#X connect 2 0 43 0;
#X connect 2 1 17 0;
#X connect 2 2 18 0;
#X connect 2 3 19 0;
#X connect 3 0 20 0;
#X connect 3 1 21 0;
#X connect 3 2 22 0;
#X connect 3 3 23 0;
#X connect 4 0 28 0;
#X connect 4 1 29 0;
#X connect 4 2 30 0;
#X connect 4 3 31 0;
#X connect 5 0 32 0;
#X connect 5 1 33 0;
#X connect 5 2 34 0;
#X connect 5 3 35 0;
#X connect 6 0 36 0;
#X connect 6 1 37 0;
#X connect 6 2 38 0;
#X connect 6 3 39 0;
#X connect 7 0 40 0;
#X connect 7 1 41 0;
#X connect 7 2 62 0;
#X connect 7 3 42 0;
#X connect 8 0 27 0;
#X connect 8 1 26 0;
#X connect 8 2 25 0;
#X connect 8 3 24 0;
#X connect 9 0 53 0;
#X connect 10 0 53 0;
#X connect 11 0 53 0;
#X connect 12 0 53 0;
#X connect 13 0 54 0;
#X connect 14 0 54 0;
#X connect 15 0 54 0;
#X connect 16 0 54 0;
#X connect 17 0 55 0;
#X connect 18 0 55 0;
#X connect 19 0 55 0;
#X connect 20 0 56 0;
#X connect 21 0 56 0;
#X connect 22 0 56 0;
#X connect 23 0 56 0;
#X connect 24 0 57 0;
#X connect 25 0 57 0;
#X connect 26 0 57 0;
#X connect 27 0 57 0;
#X connect 28 0 61 0;
#X connect 29 0 61 0;
#X connect 30 0 61 0;
#X connect 31 0 61 0;
#X connect 32 0 60 0;
#X connect 33 0 60 0;
#X connect 34 0 60 0;
#X connect 35 0 60 0;
#X connect 36 0 59 0;
#X connect 37 0 59 0;
#X connect 38 0 59 0;
#X connect 39 0 59 0;
#X connect 40 0 58 0;
#X connect 41 0 58 0;
#X connect 42 0 58 0;
#X connect 43 0 55 0;
#X connect 44 0 0 0;
#X connect 45 0 1 0;
#X connect 46 0 2 0;
#X connect 47 0 3 0;
#X connect 48 0 8 0;
#X connect 49 0 7 0;
#X connect 50 0 6 0;
#X connect 51 0 5 0;
#X connect 52 0 4 0;
#X connect 62 0 58 0;
#X restore 469 225 pd cd;
#X obj 439 247 s randcd;
#X obj 367 280 r bb;
#X obj 440 279 r cc;
#X obj 610 606 outlet;
#X obj -61 24 r mode;
#X floatatom -61 49 5 0 0 0 - - -;
#X obj -61 76 sel 1 2 3;
#X obj -102 312 s go1;
#X obj 111 25 r go1;
#X obj -102 122 r go;
#X obj -85 291 s go2;
#X floatatom -102 169 5 0 0 0 - - -;
#X obj -102 202 +;
#X floatatom -102 225 5 0 0 0 - - -;
#X floatatom -61 169 5 0 0 0 - - -;
#X msg -61 141 1;
#X msg -102 145 1;
#X msg -44 118 2;
#X msg -27 98 3;
#X obj -68 269 s go3;
#X obj 788 304 symbol;
#X obj 719 305 symbol;
#X obj 691 421 l2s;
#X symbolatom 691 447 30 0 0 0 - - -;
#X obj 644 302 symbol;
#X obj 691 336 pack s s s;
#X obj 367 304 symbol;
#X obj 440 305 symbol;
#X obj 367 329 pack s s;
#X obj 368 401 l2s;
#X symbolatom 368 427 30 0 0 0 - - -;
#X msg 441 352 symbol;
#X symbolatom 441 375 10 0 0 0 - - -;
#X msg 785 360 symbol;
#X symbolatom 785 384 10 0 0 0 - - -;
#X obj 785 336 loadbang;
#X obj 441 329 loadbang;
#X msg 524 454 \$1;
#X msg 846 470 \$1;
#X msg 610 580 set \$1;
#X obj 357 481 print Vous êtes un.e expert.e en;
#X obj 681 499 print Vous êtes un.e expert.e en;
#X floatatom 112 97 5 0 0 0 - - -;
#X obj 112 74 + 1;
#X obj 112 165 s go2;
#X obj 157 166 s go3;
#X obj 112 142 bng 15 250 50 0 empty empty empty 17 7 0 10 -262144
-1 -1;
#X obj 157 144 bng 15 250 50 0 empty empty empty 17 7 0 10 -262144
-1 -1;
#X obj 111 51 random 100;
#X obj 112 120 moses 75;
#X text -111 -8 Bang expertise;
#X text 112 -7 Random;
#X text 385 -6 1 préfixe;
#X text 691 -4 2 préfixes;
#X obj 598 505 s exp;
#X text 106 304 Remise à zéro;
#X obj 788 173 loadbang;
#X obj 266 37 loadbang;
#X obj 267 64 time;
#X obj 289 85 * 1000;
#X floatatom 291 116 10 0 0 0 - - -;
#X msg 294 141 seed \$1;
#X obj 559 34 loadbang;
#X obj 558 62 time;
#X obj 580 83 * 1000;
#X floatatom 582 114 10 0 0 0 - - -;
#X msg 585 139 seed \$1;
#X obj 462 178 loadbang;
#X symbolatom 135 494 10 0 0 0 - - -;
#X msg 66 453 set .;
#X obj 122 429 delay 500;
#X msg 122 452 set ..;
#X obj 188 429 delay 1000;
#X obj 135 539 s exp;
#X obj 135 517 l2s;
#X obj 112 494 bng 15 250 50 0 empty empty empty 17 7 0 10 -262144
-1 -1;
#X msg -9 138 4;
#X obj 144 396 t b b b;
#X obj 140 367 metro 1500;
#X msg 93 338 stop;
#X obj 5 76 sel 4;
#X obj 4 98 s raz;
#X obj 140 337 r raz;
#X obj -102 246 sel 2 3 4;
#X obj -34 246 sel 5;
#X obj 190 335 loadbang;
#X msg 188 453 set ...;
#X connect 0 0 48 0;
#X connect 1 0 2 0;
#X connect 4 0 5 0;
#X connect 7 0 45 0;
#X connect 8 0 9 0;
#X connect 11 0 1 0;
#X connect 12 0 4 0;
#X connect 13 0 8 0;
#X connect 14 0 44 0;
#X connect 15 0 87 0;
#X connect 15 0 11 0;
#X connect 15 0 12 0;
#X connect 15 0 13 0;
#X connect 16 0 82 0;
#X connect 16 0 17 0;
#X connect 16 0 22 0;
#X connect 17 0 18 0;
#X connect 18 0 19 0;
#X connect 21 0 24 0;
#X connect 22 0 21 0;
#X connect 25 0 50 0;
#X connect 26 0 51 0;
#X connect 28 0 29 0;
#X connect 29 0 30 0;
#X connect 29 0 104 0;
#X connect 30 0 39 0;
#X connect 30 1 41 0;
#X connect 30 2 42 0;
#X connect 30 3 100 0;
#X connect 32 0 72 0;
#X connect 33 0 40 0;
#X connect 35 0 36 0;
#X connect 36 0 37 0;
#X connect 37 0 107 0;
#X connect 37 0 108 0;
#X connect 38 0 36 1;
#X connect 39 0 38 0;
#X connect 40 0 35 0;
#X connect 41 0 38 0;
#X connect 42 0 38 0;
#X connect 44 0 49 2;
#X connect 45 0 49 1;
#X connect 46 0 47 0;
#X connect 47 0 62 0;
#X connect 47 0 63 0;
#X connect 47 0 78 0;
#X connect 48 0 49 0;
#X connect 49 0 46 0;
#X connect 50 0 52 0;
#X connect 51 0 52 1;
#X connect 52 0 53 0;
#X connect 53 0 54 0;
#X connect 54 0 61 0;
#X connect 54 0 63 0;
#X connect 54 0 78 0;
#X connect 55 0 56 0;
#X connect 56 0 53 1;
#X connect 57 0 58 0;
#X connect 58 0 46 1;
#X connect 59 0 57 0;
#X connect 60 0 55 0;
#X connect 61 0 64 0;
#X connect 62 0 65 0;
#X connect 63 0 27 0;
#X connect 66 0 73 0;
#X connect 67 0 66 0;
#X connect 70 0 68 0;
#X connect 71 0 69 0;
#X connect 72 0 67 0;
#X connect 73 0 70 0;
#X connect 73 1 71 0;
#X connect 80 0 13 0;
#X connect 81 0 82 0;
#X connect 82 3 83 0;
#X connect 83 0 84 0;
#X connect 84 0 85 0;
#X connect 85 0 17 0;
#X connect 85 0 22 0;
#X connect 86 0 87 0;
#X connect 87 3 88 0;
#X connect 88 0 89 0;
#X connect 89 0 90 0;
#X connect 90 0 11 0;
#X connect 90 0 12 0;
#X connect 90 0 13 0;
#X connect 91 0 22 0;
#X connect 92 0 98 0;
#X connect 93 0 92 0;
#X connect 93 0 99 0;
#X connect 94 0 95 0;
#X connect 95 0 92 0;
#X connect 95 0 99 0;
#X connect 96 0 110 0;
#X connect 98 0 97 0;
#X connect 99 0 92 0;
#X connect 100 0 38 0;
#X connect 101 0 93 0;
#X connect 101 1 94 0;
#X connect 101 2 96 0;
#X connect 102 0 101 0;
#X connect 103 0 102 0;
#X connect 103 0 94 0;
#X connect 103 0 96 0;
#X connect 104 0 105 0;
#X connect 106 0 102 0;
#X connect 107 0 31 0;
#X connect 107 1 34 0;
#X connect 107 2 43 0;
#X connect 108 1 103 0;
#X connect 109 0 102 0;
#X connect 110 0 92 0;
#X connect 110 0 99 0;
#X restore 216 309 pd mot;
#X symbolatom 216 338 30 0 0 0 - - -;
#X text 195 469 Vous êtes un.e expert.e en :;
#X text 524 282 Morphologie du;
#X text 524 297 domaine d'expertise :;
#X msg 216 383 \; expname label \$1;
#X obj 216 360 r exp;
#X msg 353 268 4;
#X obj 199 253 cnv 15 300 200 empty empty Expert-o-tron™ 160 -92
1 27 -191407 -4160 0;
#N canvas 299 52 425 329 Notice 0;
#X text 24 243 Nous vous souhaitons une agréable expertise.;
#X text 24 118 - Choisissez si votre domaine d'expertise sera sous
la forme "préfixe + suffixe" \, "préfixe + préfixe + suffixe" ou
laissez l'aléatoire décider pour vous.;
#X text 23 77 Pour utiliser Expert-o-tron™ \, veuillez respecter
la marche à suivre indiquée ci-dessous :;
#X text 24 170 - Cliquez sur le bouton "Expertiser";
#X text 24 196 Vous pouvez à tout moment réinitialiser Expert-o-tron™
en cliquant sur le bouton "Reset".;
#X text 153 17 EXPERT-O-TRON™;
#X text 288 295 Victor Diyan - 2022;
#X restore 808 586 pd Notice;
#X connect 1 0 2 0;
#X connect 3 0 25 0;
#X connect 3 0 9 0;
#X connect 3 0 10 0;
#X connect 3 0 11 0;
#X connect 4 0 5 0;
#X connect 5 0 13 0;
#X connect 5 0 9 0;
#X connect 6 0 14 0;
#X connect 6 0 10 0;
#X connect 7 0 15 0;
#X connect 7 0 11 0;
#X connect 9 0 6 0;
#X connect 9 0 7 0;
#X connect 10 0 5 0;
#X connect 10 0 7 0;
#X connect 11 0 5 0;
#X connect 11 0 6 0;
#X connect 13 0 8 0;
#X connect 14 0 8 0;
#X connect 15 0 8 0;
#X connect 18 0 19 0;
#X connect 24 0 23 0;
#X connect 25 0 8 0;
